<!DOCTYPE html PUBLIC "-//W3C//DTD SVG 1.1//EN" "http://www.w3.org/Graphics/SVG/1.1/DTD/svg11.dtd"><!-- Uploaded to: SVG Repo, www.svgrepo.com, Transformed by: SVG Repo Mixer Tools --><svg height="800" width="800" version="1.1" id="_x34_" xmlns="http://www.w3.org/2000/svg" viewBox="0 0 512 512" xml:space="preserve" fill="#000000" preserveAspectRatio="xMidYMid meet" zoomAndPan="magnify" contentScriptType="application/ecmascript" contentStyleType="text/css"><g id="SVGRepo_iconCarrier"><circle style="fill: rgb(255, 255, 255);" cx="255.693" cy="134.136" r="134.136"/><path style="fill: rgb(209, 233, 217);" d="M257.535 79.113H182.64c-6.078 0-11.05-4.973-11.05-11.05s4.973-11.05 11.05-11.05h74.895c6.078 0 11.05 4.973 11.05 11.05s-4.973 11.05-11.05 11.05z"/><path style="fill: rgb(209, 233, 217);" d="M244.643 126.076h-74.895c-6.077 0-11.05-4.973-11.05-11.05s4.973-11.05 11.05-11.05h74.895c6.077 0 11.05 4.973 11.05 11.05s-4.973 11.05-11.05 11.05z"/><path style="fill: rgb(209, 233, 217);" d="M351.46 176.722H169.75c-6.077 0-11.05-4.973-11.05-11.05 0-6.078 4.973-11.05 11.05-11.05H351.46c6.078 0 11.05 4.973 11.05 11.05s-4.972 11.05-11.05 11.05z"/><path style="fill: rgb(209, 233, 217);" d="M270.887 212.635H184.02c-6.077 0-11.05-4.973-11.05-11.05 0-6.078 4.974-11.05 11.05-11.05h86.867c6.078 0 11.05 4.973 11.05 11.05s-4.972 11.05-11.05 11.05z"/><path style="fill: rgb(209, 233, 217);" d="M349.62 126.076h-74.896c-6.078 0-11.05-4.973-11.05-11.05s4.972-11.05 11.05-11.05h74.895c6.076 0 11.05 4.973 11.05 11.05s-4.974 11.05-11.05 11.05z"/><polygon style="fill: rgb(255, 255, 255);" points="209.185 252.621 282.019 241.572 284.185 311.096"/><path style="fill: rgb(209, 233, 217);" d="M186.636 272.35c-14.07 14.07-31.953 24.348-51.99 29.118L86.06 339.35l1.16-37.11C37.44 292.04 0 247.987 0 195.204 0 134.85 48.933 85.918 109.285 85.918h.055c-4.2 14.328-6.446 29.485-6.446 45.177 0 60.904 33.833 113.926 83.742 141.256z"/><path style="fill: rgb(209, 233, 217);" d="M325.364 272.35c14.07 14.07 31.953 24.348 51.99 29.118l48.585 37.883-1.16-37.11c49.78-10.2 87.22-54.254 87.22-107.037 0-60.352-48.934-109.285-109.285-109.285h-.055c4.2 14.328 6.446 29.485 6.446 45.177 0 60.904-33.833 113.926-83.742 141.256z"/><g style="opacity: 0.04;"><path style="fill: rgb(7, 4, 5);" d="M389.83 134.136c0-27.88-8.516-53.763-23.073-75.216L180.623 245.053c13.122 8.877 27.842 15.574 43.714 19.382l59.847 46.66-1.42-45.56c61.105-12.522 107.065-66.592 107.065-131.4z"/><path style="fill: rgb(7, 4, 5);" d="m87.256 338.42 47.39-36.952c20.036-4.77 37.92-15.046 51.99-29.117-7.07-3.87-13.774-8.31-20.148-13.162L87.256 338.42z"/><path style="fill: rgb(7, 4, 5);" d="M512 195.203c0-60.352-48.934-109.286-109.286-109.286h-.055c4.198 14.328 6.445 29.485 6.445 45.177 0 60.904-33.832 113.926-83.74 141.257 14.07 14.07 31.952 24.348 51.99 29.118l48.584 37.884-1.16-37.11C474.56 292.04 512 247.986 512 195.202z"/></g></g></svg>