<!DOCTYPE html PUBLIC "-//W3C//DTD SVG 1.1//EN" "http://www.w3.org/Graphics/SVG/1.1/DTD/svg11.dtd"><!-- Uploaded to: SVG Repo, www.svgrepo.com, Transformed by: SVG Repo Mixer Tools --><svg fill="#0097c7" width="800" height="800" viewBox="-6.4 -6.4 76.8 76.8" version="1.1" xml:space="preserve" xmlns="http://www.w3.org/2000/svg" stroke="#0097c7" stroke-width="0.00064" preserveAspectRatio="xMidYMid meet" zoomAndPan="magnify" contentScriptType="application/ecmascript" contentStyleType="text/css"><g id="SVGRepo_iconCarrier"><g id="_x31_7_papperplane"><path d="M62.99 2.562a1.012 1.012 0 0 0-1.23-.84L7.403 15.206a1 1 0 0 0-.45 1.693l13.933 13.357-2.764 17.15c-.108.67.496 1.257 1.158 1.144l18.081-3.131 17.184 9.698a1 1 0 0 0 1.483-.738l6.964-51.554a.995.995 0 0 0 0-.264zM9.646 16.71 56.89 4.99 22.255 28.798 9.647 16.71zm27.268 26.756L20.32 46.341l2.5-15.504L58.863 6.062 36.915 43.465zm17.328 9.184L38.92 44.001 60.343 7.493l-6.1 45.158z"/><path d="m14.444 51.61-4.695 5.209a1 1 0 1 0 1.484 1.338l4.695-5.21a1 1 0 1 0-1.486-1.338z"/><path d="m5.948 29.056-4.691 5.209a1 1 0 0 0 1.486 1.338l4.691-5.208a1 1 0 0 0-1.486-1.339z"/><path d="m40.816 55.433-4.69 5.205a1 1 0 1 0 1.485 1.34l4.692-5.206a1 1 0 1 0-1.486-1.339z"/></g></g></svg>