<!DOCTYPE html PUBLIC "-//W3C//DTD SVG 1.1//EN" "http://www.w3.org/Graphics/SVG/1.1/DTD/svg11.dtd"><!-- Uploaded to: SVG Repo, www.svgrepo.com, Transformed by: SVG Repo Mixer Tools --><svg fill="#be0101" width="800" height="800" viewBox="0 0 64 64" version="1.1" xml:space="preserve" xmlns="http://www.w3.org/2000/svg" stroke="#be0101" stroke-width="0.00064" preserveAspectRatio="xMidYMid meet" zoomAndPan="magnify" contentScriptType="application/ecmascript" contentStyleType="text/css"><g id="SVGRepo_iconCarrier"><g id="_x31_1_man_talking"><path d="M61.41 20.883a9.565 9.565 0 0 0-5.659-4.72 9.55 9.55 0 0 0-7.335.667c-4.698 2.466-6.514 8.295-4.05 12.99.132.255.276.505.433.747l-1.23 2.108c-.188.323-.18.724.02 1.04s.556.488.933.46l3.82-.34a9.618 9.618 0 0 0 4.545 1.147c1.53 0 3.063-.369 4.472-1.108a9.56 9.56 0 0 0 4.716-5.656 9.562 9.562 0 0 0-.663-7.335zm-1.246 6.74a7.57 7.57 0 0 1-3.737 4.48 7.59 7.59 0 0 1-7.368-.158 1 1 0 0 0-.591-.13l-2.199.196.577-.987a1 1 0 0 0-.065-1.106 7.27 7.27 0 0 1-.644-1.022c-1.953-3.723-.514-8.34 3.207-10.294a7.574 7.574 0 0 1 5.81-.527 7.577 7.577 0 0 1 4.484 3.739 7.574 7.574 0 0 1 .524 5.81z"/><path d="M48.18 24.353h-.034a.986.986 0 0 0-.983 1c0 .552.465 1 1.017 1a1 1 0 0 0 0-2z"/><path d="M52.927 24.353h-.037a.985.985 0 0 0-.982 1c0 .552.467 1 1.02 1a1 1 0 0 0 0-2z"/><path d="M57.671 24.353h-.033a.986.986 0 0 0-.983 1c0 .552.465 1 1.017 1a1 1 0 0 0 .001-2z"/><path d="M24.977 51.155a1 1 0 0 0 0-2h-.044a.982.982 0 0 0-.978 1c0 .552.47 1 1.022 1z"/><path d="M25.038 54.902h-.04a.983.983 0 0 0-.98 1c0 .553.468 1 1.02 1a1 1 0 0 0 0-2z"/><path d="M38.336 36.181a3.16 3.16 0 0 0-.578-.914l-1.375-1.495a3.185 3.185 0 0 0-2.233-1.025 3.37 3.37 0 0 0-.67.05l-.843-1.578c2.39-1.998 4.21-4.767 5.173-7.457l1.84-.607c1.296-.43 2.433-2.069 2.433-3.506v-1.54a2.75 2.75 0 0 0-2.748-2.75h-.744v-1.396l-.001-.008c.193-4.547-1.802-8.356-5.63-10.727C28.464.438 22.15.259 17.61 2.79c-4.009 2.23-6.216 6.198-6.216 11.17v1.398h-.747a2.75 2.75 0 0 0-2.745 2.748v1.54c0 1.44 1.135 3.078 2.431 3.508l1.844.608c.838 2.33 2.3 4.73 4.137 6.666.233.246.484.474.74.698l-.717 1.65a3.274 3.274 0 0 0-.543-.03c-.856.034-1.647.4-2.223 1.026l-1.377 1.493a3.18 3.18 0 0 0-.581.917C1.496 40.146 1.488 47.897 1.488 53.052v8.955a1 1 0 0 0 1 1h44.974a1 1 0 0 0 1-1v-8.954c0-5.157-.007-12.908-10.126-16.872zm.254-16.404V17.36h.745a.75.75 0 0 1 .747.746v1.54c0 .564-.586 1.45-1.06 1.608l-.596.197a10.1 10.1 0 0 0 .164-1.674zm-27.628 1.478c-.476-.157-1.06-1.044-1.06-1.607v-1.54c0-.413.334-.748.745-.748h.747v2.396c0 .54.072 1.114.175 1.699l-.608-.2zm22.255 13.804c.232-.216.531-.324.856-.314.324.013.623.15.84.384l1.373 1.493.002.002c.216.234.328.54.315.862s-.15.62-.384.835l-5.942 5.478a1.205 1.205 0 0 1-1.699-.072l-2.19-2.376 6.827-6.292zm-8.24 4.874-6.832-6.297.572-1.318c1.92 1.14 4.211 1.777 6.624 1.777 2.054 0 3.962-.65 5.66-1.696l.709 1.33-6.733 6.204zM18.582 4.538c3.937-2.194 9.415-2.034 13.324.388 2.908 1.8 4.53 4.608 4.67 7.968-5.972-.363-10.827-1.84-16.013-4.887a1.002 1.002 0 0 0-1.273.22l-.426.51c-1.953 2.339-2.711 3.246-5.408 3.954.405-4.559 2.954-6.943 5.126-8.152zm-5.187 15.218v-4.991c3.725-.883 4.81-2.12 6.89-4.61 5.245 2.958 10.215 4.41 16.305 4.76v4.86c0 4.865-5.04 12.318-11.25 12.318-2.981 0-5.743-1.108-7.575-3.041-2.573-2.712-4.37-6.536-4.37-9.296zm.268 16.866 1.379-1.494a1.19 1.19 0 0 1 .885-.385c.303 0 .59.111.812.317l6.824 6.29-2.194 2.377a1.19 1.19 0 0 1-.834.384 1.203 1.203 0 0 1-.863-.312l-5.94-5.478a1.196 1.196 0 0 1-.385-.836 1.188 1.188 0 0 1 .315-.862zm32.8 24.384h-5.016V54.74a1 1 0 0 0-2 0v6.267H9.902V54.74a1 1 0 0 0-2 0v6.267H3.489v-7.954c-.001-4.984.018-11.122 8.018-14.653a3.17 3.17 0 0 0 .868 1.39l5.942 5.48a3.178 3.178 0 0 0 2.3.84 3.175 3.175 0 0 0 2.224-1.027l2.135-2.315 2.132 2.315a3.2 3.2 0 0 0 2.357 1.03 3.19 3.19 0 0 0 2.166-.844l5.943-5.48c.423-.392.704-.876.866-1.39 8.001 3.53 8.02 9.67 8.02 14.653v7.953z"/><path d="m25.05 27.63.146-.003c.897-.037 1.717-.398 2.249-.99a1 1 0 0 0-1.488-1.337c-.168.188-.491.313-.842.328a1.492 1.492 0 0 1-1.09-.386 1 1 0 1 0-1.374 1.454 3.5 3.5 0 0 0 2.4.933z"/><path d="M29.29 20.183c.277-.262.68-.399 1.088-.386.352.015.674.14.843.328a.997.997 0 0 0 1.414.075 1 1 0 0 0 .075-1.412c-.533-.593-1.353-.953-2.25-.99a3.488 3.488 0 0 0-2.545.932 1 1 0 0 0 1.375 1.453z"/><path d="M16.944 18.73a1 1 0 0 0 1.375 1.453c.276-.262.683-.399 1.088-.386.35.015.674.14.843.328a.997.997 0 0 0 1.413.075 1 1 0 0 0 .075-1.412c-.532-.593-1.352-.953-2.25-.99-.956-.041-1.878.3-2.544.931z"/></g></g></svg>