<!DOCTYPE html PUBLIC "-//W3C//DTD SVG 1.1//EN" "http://www.w3.org/Graphics/SVG/1.1/DTD/svg11.dtd"><!-- Uploaded to: SVG Repo, www.svgrepo.com, Transformed by: SVG Repo Mixer Tools --><svg width="800" height="800" viewBox="0 0 24 24" fill="none" xmlns="http://www.w3.org/2000/svg" stroke="#5ebbd8" stroke-width="0.00024000000000000003" preserveAspectRatio="xMidYMid meet" zoomAndPan="magnify" version="1.1" contentScriptType="application/ecmascript" contentStyleType="text/css"><path fill-rule="evenodd" clip-rule="evenodd" d="M1.25 12C1.25 6.063 6.063 1.25 12 1.25a.75.75 0 0 1 0 1.5A9.25 9.25 0 1 0 21.25 12a.75.75 0 0 1 1.5 0c0 5.937-4.813 10.75-10.75 10.75S1.25 17.937 1.25 12zm15.52-9.724a3.503 3.503 0 0 1 4.954 4.953l-6.648 6.648c-.371.37-.604.603-.863.806a5.34 5.34 0 0 1-.987.61c-.297.141-.61.245-1.107.411l-2.906.968a1.492 1.492 0 0 1-1.887-1.887l.968-2.905c.166-.497.27-.81.411-1.106.167-.35.372-.68.61-.987.202-.26.435-.492.806-.863l6.649-6.648zm3.893 1.06a2.003 2.003 0 0 0-2.832 0l-.375.377c.022.096.054.21.098.338.144.414.415.958.927 1.47a3.875 3.875 0 0 0 1.807 1.025l.376-.376a2.003 2.003 0 0 0 0-2.833zm-1.558 4.391a5.397 5.397 0 0 1-1.686-1.146 5.395 5.395 0 0 1-1.147-1.685L11.217 9.95c-.416.417-.58.582-.718.76a3.84 3.84 0 0 0-.44.71c-.097.203-.171.423-.358.982l-.431 1.295 1.033 1.033 1.295-.432c.56-.187.78-.261.983-.359.252-.12.49-.267.71-.439.178-.138.343-.3.76-.717l5.055-5.056z" fill="#5ebbd8" id="SVGRepo_iconCarrier"/></svg>