<!DOCTYPE html PUBLIC "-//W3C//DTD SVG 1.1//EN" "http://www.w3.org/Graphics/SVG/1.1/DTD/svg11.dtd"><!-- Uploaded to: SVG Repo, www.svgrepo.com, Transformed by: SVG Repo Mixer Tools --><svg fill="#0097c7" width="800" height="800" viewBox="-5.12 -5.12 74.24 74.24" version="1.1" xml:space="preserve" xmlns="http://www.w3.org/2000/svg" stroke="#0097c7" stroke-width="0.00064" preserveAspectRatio="xMidYMid meet" zoomAndPan="magnify" contentScriptType="application/ecmascript" contentStyleType="text/css"><g id="SVGRepo_iconCarrier"><path d="M32 1C14.907 1 1 14.907 1 32s13.907 31 31 31 31-13.907 31-31S49.092 1 32 1zm14.757 30a64.83 64.83 0 0 0-.407-6.367 5.494 5.494 0 0 0 3.092-2.777c6.635 2.24 10.794 5.573 11.453 9.144H46.757zm-2.384 8.052a5.473 5.473 0 0 0-5.322 5.321c-1.983.224-4.01.353-6.05.384V33h11.757a62.605 62.605 0 0 1-.384 6.052zM33 31V19.246c2.05.031 4.077.16 6.051.38a5.473 5.473 0 0 0 5.323 5.322c.224 1.983.352 4.01.384 6.052H33zm11.518-8.044a3.478 3.478 0 0 1-3.474-3.474c0-1.915 1.559-3.473 3.474-3.473s3.473 1.557 3.473 3.472a3.478 3.478 0 0 1-3.472 3.474zm-5.152-5.306A64.833 64.833 0 0 0 33 17.246V3.103c3.574.66 6.907 4.819 9.143 11.455a5.492 5.492 0 0 0-2.777 3.092zM31 3.097v14.145c-3.605.052-7.035.383-10.203.952C22.839 9.754 26.667 3.887 31 3.097zm0 16.145V31h-7.392a5.483 5.483 0 0 0-4.154-4.33c.184-2.206.478-4.32.87-6.313 3.302-.662 6.91-1.055 10.676-1.115zM18.23 35.473c-1.917 0-3.476-1.558-3.476-3.473s1.56-3.473 3.477-3.473c1.916 0 3.474 1.558 3.474 3.473s-1.558 3.473-3.473 3.473zm-.776-8.885A5.482 5.482 0 0 0 12.85 31H3.103c.805-4.33 6.761-8.13 15.095-10.174-.33 1.835-.58 3.761-.744 5.762zM12.85 33a5.482 5.482 0 0 0 4.604 4.411c.164 2.004.414 3.931.745 5.767C9.863 41.132 3.906 37.33 3.102 33h9.747zm6.604 4.33A5.483 5.483 0 0 0 23.608 33H31V44.76c-3.766-.058-7.374-.452-10.676-1.113a57.904 57.904 0 0 1-.87-6.316zM31 46.762v14.143c-4.331-.79-8.16-6.655-10.203-15.094 3.168.568 6.599.9 10.203.951zm2 14.136V46.757a64.782 64.782 0 0 0 6.366-.407 5.493 5.493 0 0 0 2.777 3.092c-2.24 6.635-5.572 10.795-9.143 11.454zm8.044-16.378c0-1.915 1.559-3.474 3.474-3.474s3.473 1.559 3.473 3.474c.001 1.915-1.558 3.473-3.473 3.473s-3.473-1.557-3.473-3.472zm5.306-5.151A64.8 64.8 0 0 0 46.757 33h14.138c-.66 3.57-4.818 6.904-11.453 9.144a5.494 5.494 0 0 0-3.092-2.777zm14.02-13.37c-2.22-2.418-5.778-4.521-10.401-6.071.01-.147.021-.294.021-.444a5.48 5.48 0 0 0-5.472-5.473c-.15-.001-.297.01-.444.021-1.547-4.621-3.65-8.18-6.067-10.4 11.18 2.364 20 11.187 22.363 22.367zM25.972 3.635c-3.216 2.963-5.822 8.257-7.328 14.989-6.702 1.49-12.02 4.08-15 7.314C6.023 14.793 14.821 6.002 25.971 3.635zM3.644 38.063c2.98 3.234 8.298 5.826 15 7.316 1.506 6.73 4.112 12.023 7.328 14.986-11.15-2.368-19.948-11.158-22.328-22.303zm34.36 22.307c2.416-2.218 4.52-5.778 6.07-10.401.146.01.294.021.444.021a5.48 5.48 0 0 0 5.473-5.472c.001-.15-.01-.297-.021-.444 4.622-1.55 8.18-3.653 10.4-6.07-2.363 11.18-11.186 20.004-22.367 22.367z" id="_x31_5_connection"/></g></svg>