<!DOCTYPE html PUBLIC "-//W3C//DTD SVG 1.1//EN" "http://www.w3.org/Graphics/SVG/1.1/DTD/svg11.dtd"><!-- Uploaded to: SVG Repo, www.svgrepo.com, Transformed by: SVG Repo Mixer Tools --><svg version="1.1" id="Uploaded to svgrepo.com" xmlns="http://www.w3.org/2000/svg" width="800" height="800" viewBox="0 0 32 32" xml:space="preserve" fill="#be0101" stroke="#be0101" stroke-width="0.00032" preserveAspectRatio="xMidYMid meet" zoomAndPan="magnify" contentScriptType="application/ecmascript" contentStyleType="text/css"><g id="SVGRepo_iconCarrier"><style type="text/css" xml:space="preserve">.open_een { fill: rgb(190, 1, 1); }</style><path class="open_een" d="M15.977 29.993c-3.45 0-6.706-1.236-9.307-3.563A14.02 14.02 0 0 1 2 15.992C2 8.75 7.647 2.622 14.857 2.04c.422-.04.85.11 1.16.397.312.287.483.677.483 1.1v11.17c0 .433.353.785.786.785h4.5a.5.5 0 0 1 0 1h-4.5c-.984 0-1.786-.8-1.786-1.785V3.537c0-.14-.057-.27-.16-.364a.526.526 0 0 0-.402-.138C8.244 3.575 3 9.268 3 15.992a13.02 13.02 0 0 0 4.336 9.692c2.793 2.5 6.408 3.646 10.162 3.224 5.9-.658 10.696-5.41 11.405-11.3.764-6.344-3.1-12.265-9.186-14.077a.5.5 0 0 1-.336-.62.503.503 0 0 1 .623-.338c6.555 1.953 10.716 8.327 9.894 15.156-.764 6.345-5.932 11.465-12.287 12.174-.548.06-1.093.09-1.633.09z"/><path class="open_een" d="M15.977 29.993c-3.45 0-6.706-1.236-9.307-3.563A14.02 14.02 0 0 1 2 15.992C2 8.75 7.647 2.622 14.857 2.04c.422-.04.85.11 1.16.397.312.287.483.677.483 1.1v11.17c0 .433.353.785.786.785h4.5a.5.5 0 0 1 0 1h-4.5c-.984 0-1.786-.8-1.786-1.785V3.537c0-.14-.057-.27-.16-.364a.526.526 0 0 0-.402-.138C8.244 3.575 3 9.268 3 15.992a13.02 13.02 0 0 0 4.336 9.692c2.793 2.5 6.408 3.646 10.162 3.224 5.9-.658 10.696-5.41 11.405-11.3.764-6.344-3.1-12.265-9.186-14.077a.5.5 0 0 1-.336-.62.503.503 0 0 1 .623-.338c6.555 1.953 10.716 8.327 9.894 15.156-.764 6.345-5.932 11.465-12.287 12.174-.548.06-1.093.09-1.633.09z"/></g></svg>